<?xml version="1.0" encoding="utf-8"?>
<svg xmlns="http://www.w3.org/2000/svg" xmlns:xlink="http://www.w3.org/1999/xlink" width="600" height="400" viewBox="0 0 2400 1600">
<defs>
  <clipPath id="clip7600">
    <rect x="0" y="0" width="2400" height="1600"/>
  </clipPath>
</defs>
<polygon clip-path="url(#clip7600)" points="
0,1600 2400,1600 2400,0 0,0 
  " fill="#ffffff" fill-rule="evenodd" fill-opacity="1"/>
<defs>
  <clipPath id="clip7601">
    <rect x="480" y="0" width="1681" height="1600"/>
  </clipPath>
</defs>
<polygon clip-path="url(#clip7600)" points="
113.754,1487.47 2352.76,1487.47 2352.76,47.2441 113.754,47.2441 
  " fill="#ffffff" fill-rule="evenodd" fill-opacity="1"/>
<defs>
  <clipPath id="clip7602">
    <rect x="113" y="47" width="2240" height="1441"/>
  </clipPath>
</defs>
<polyline clip-path="url(#clip7602)" style="stroke:#000000; stroke-width:2; stroke-opacity:0.1; fill:none" points="
  155.786,1487.47 155.786,47.2441 
  "/>
<polyline clip-path="url(#clip7602)" style="stroke:#000000; stroke-width:2; stroke-opacity:0.1; fill:none" points="
  689.187,1487.47 689.187,47.2441 
  "/>
<polyline clip-path="url(#clip7602)" style="stroke:#000000; stroke-width:2; stroke-opacity:0.1; fill:none" points="
  1222.59,1487.47 1222.59,47.2441 
  "/>
<polyline clip-path="url(#clip7602)" style="stroke:#000000; stroke-width:2; stroke-opacity:0.1; fill:none" points="
  1755.99,1487.47 1755.99,47.2441 
  "/>
<polyline clip-path="url(#clip7602)" style="stroke:#000000; stroke-width:2; stroke-opacity:0.1; fill:none" points="
  2289.39,1487.47 2289.39,47.2441 
  "/>
<polyline clip-path="url(#clip7602)" style="stroke:#000000; stroke-width:2; stroke-opacity:0.1; fill:none" points="
  113.754,1451.77 2352.76,1451.77 
  "/>
<polyline clip-path="url(#clip7602)" style="stroke:#000000; stroke-width:2; stroke-opacity:0.1; fill:none" points="
  113.754,1231.13 2352.76,1231.13 
  "/>
<polyline clip-path="url(#clip7602)" style="stroke:#000000; stroke-width:2; stroke-opacity:0.1; fill:none" points="
  113.754,1010.5 2352.76,1010.5 
  "/>
<polyline clip-path="url(#clip7602)" style="stroke:#000000; stroke-width:2; stroke-opacity:0.1; fill:none" points="
  113.754,789.858 2352.76,789.858 
  "/>
<polyline clip-path="url(#clip7602)" style="stroke:#000000; stroke-width:2; stroke-opacity:0.1; fill:none" points="
  113.754,569.22 2352.76,569.22 
  "/>
<polyline clip-path="url(#clip7602)" style="stroke:#000000; stroke-width:2; stroke-opacity:0.1; fill:none" points="
  113.754,348.583 2352.76,348.583 
  "/>
<polyline clip-path="url(#clip7602)" style="stroke:#000000; stroke-width:2; stroke-opacity:0.1; fill:none" points="
  113.754,127.946 2352.76,127.946 
  "/>
<polyline clip-path="url(#clip7600)" style="stroke:#000000; stroke-width:4; stroke-opacity:1; fill:none" points="
  113.754,1487.47 2352.76,1487.47 
  "/>
<polyline clip-path="url(#clip7600)" style="stroke:#000000; stroke-width:4; stroke-opacity:1; fill:none" points="
  113.754,1487.47 113.754,47.2441 
  "/>
<polyline clip-path="url(#clip7600)" style="stroke:#000000; stroke-width:4; stroke-opacity:1; fill:none" points="
  155.786,1487.47 155.786,1465.87 
  "/>
<polyline clip-path="url(#clip7600)" style="stroke:#000000; stroke-width:4; stroke-opacity:1; fill:none" points="
  689.187,1487.47 689.187,1465.87 
  "/>
<polyline clip-path="url(#clip7600)" style="stroke:#000000; stroke-width:4; stroke-opacity:1; fill:none" points="
  1222.59,1487.47 1222.59,1465.87 
  "/>
<polyline clip-path="url(#clip7600)" style="stroke:#000000; stroke-width:4; stroke-opacity:1; fill:none" points="
  1755.99,1487.47 1755.99,1465.87 
  "/>
<polyline clip-path="url(#clip7600)" style="stroke:#000000; stroke-width:4; stroke-opacity:1; fill:none" points="
  2289.39,1487.47 2289.39,1465.87 
  "/>
<polyline clip-path="url(#clip7600)" style="stroke:#000000; stroke-width:4; stroke-opacity:1; fill:none" points="
  113.754,1451.77 147.339,1451.77 
  "/>
<polyline clip-path="url(#clip7600)" style="stroke:#000000; stroke-width:4; stroke-opacity:1; fill:none" points="
  113.754,1231.13 147.339,1231.13 
  "/>
<polyline clip-path="url(#clip7600)" style="stroke:#000000; stroke-width:4; stroke-opacity:1; fill:none" points="
  113.754,1010.5 147.339,1010.5 
  "/>
<polyline clip-path="url(#clip7600)" style="stroke:#000000; stroke-width:4; stroke-opacity:1; fill:none" points="
  113.754,789.858 147.339,789.858 
  "/>
<polyline clip-path="url(#clip7600)" style="stroke:#000000; stroke-width:4; stroke-opacity:1; fill:none" points="
  113.754,569.22 147.339,569.22 
  "/>
<polyline clip-path="url(#clip7600)" style="stroke:#000000; stroke-width:4; stroke-opacity:1; fill:none" points="
  113.754,348.583 147.339,348.583 
  "/>
<polyline clip-path="url(#clip7600)" style="stroke:#000000; stroke-width:4; stroke-opacity:1; fill:none" points="
  113.754,127.946 147.339,127.946 
  "/>
<g clip-path="url(#clip7600)">
<text style="fill:#000000; fill-opacity:1; font-family:Arial,Helvetica Neue,Helvetica,sans-serif; font-size:48px; text-anchor:middle;" transform="rotate(0, 155.786, 1541.47)" x="155.786" y="1541.47">0</text>
</g>
<g clip-path="url(#clip7600)">
<text style="fill:#000000; fill-opacity:1; font-family:Arial,Helvetica Neue,Helvetica,sans-serif; font-size:48px; text-anchor:middle;" transform="rotate(0, 689.187, 1541.47)" x="689.187" y="1541.47">25</text>
</g>
<g clip-path="url(#clip7600)">
<text style="fill:#000000; fill-opacity:1; font-family:Arial,Helvetica Neue,Helvetica,sans-serif; font-size:48px; text-anchor:middle;" transform="rotate(0, 1222.59, 1541.47)" x="1222.59" y="1541.47">50</text>
</g>
<g clip-path="url(#clip7600)">
<text style="fill:#000000; fill-opacity:1; font-family:Arial,Helvetica Neue,Helvetica,sans-serif; font-size:48px; text-anchor:middle;" transform="rotate(0, 1755.99, 1541.47)" x="1755.99" y="1541.47">75</text>
</g>
<g clip-path="url(#clip7600)">
<text style="fill:#000000; fill-opacity:1; font-family:Arial,Helvetica Neue,Helvetica,sans-serif; font-size:48px; text-anchor:middle;" transform="rotate(0, 2289.39, 1541.47)" x="2289.39" y="1541.47">100</text>
</g>
<g clip-path="url(#clip7600)">
<text style="fill:#000000; fill-opacity:1; font-family:Arial,Helvetica Neue,Helvetica,sans-serif; font-size:48px; text-anchor:end;" transform="rotate(0, 89.7545, 1469.27)" x="89.7545" y="1469.27">0</text>
</g>
<g clip-path="url(#clip7600)">
<text style="fill:#000000; fill-opacity:1; font-family:Arial,Helvetica Neue,Helvetica,sans-serif; font-size:48px; text-anchor:end;" transform="rotate(0, 89.7545, 1248.63)" x="89.7545" y="1248.63">1</text>
</g>
<g clip-path="url(#clip7600)">
<text style="fill:#000000; fill-opacity:1; font-family:Arial,Helvetica Neue,Helvetica,sans-serif; font-size:48px; text-anchor:end;" transform="rotate(0, 89.7545, 1028)" x="89.7545" y="1028">2</text>
</g>
<g clip-path="url(#clip7600)">
<text style="fill:#000000; fill-opacity:1; font-family:Arial,Helvetica Neue,Helvetica,sans-serif; font-size:48px; text-anchor:end;" transform="rotate(0, 89.7545, 807.358)" x="89.7545" y="807.358">3</text>
</g>
<g clip-path="url(#clip7600)">
<text style="fill:#000000; fill-opacity:1; font-family:Arial,Helvetica Neue,Helvetica,sans-serif; font-size:48px; text-anchor:end;" transform="rotate(0, 89.7545, 586.72)" x="89.7545" y="586.72">4</text>
</g>
<g clip-path="url(#clip7600)">
<text style="fill:#000000; fill-opacity:1; font-family:Arial,Helvetica Neue,Helvetica,sans-serif; font-size:48px; text-anchor:end;" transform="rotate(0, 89.7545, 366.083)" x="89.7545" y="366.083">5</text>
</g>
<g clip-path="url(#clip7600)">
<text style="fill:#000000; fill-opacity:1; font-family:Arial,Helvetica Neue,Helvetica,sans-serif; font-size:48px; text-anchor:end;" transform="rotate(0, 89.7545, 145.446)" x="89.7545" y="145.446">6</text>
</g>
<polyline clip-path="url(#clip7602)" style="stroke:#009af9; stroke-width:4; stroke-opacity:1; fill:none" points="
  177.122,1023.55 198.458,1023.55 219.794,1021.32 241.13,879.226 262.466,857.707 283.803,929.273 305.139,1049.44 326.475,1056.35 347.811,1065.77 369.147,1050.52 
  390.483,988.089 411.819,1008.74 433.155,1243.74 454.491,1142.26 475.827,1276.1 497.163,973.069 518.499,1068 539.835,1142.02 561.171,1151 582.507,1109.36 
  603.843,1323.43 625.179,1297.81 646.515,1286.61 667.851,1219.29 689.187,1192.36 710.523,1243.84 731.859,617.394 753.195,88.9782 774.531,88.0053 795.867,969.522 
  817.203,1187.15 838.539,1184.17 859.875,1335.34 881.211,1298.53 902.547,1306.11 923.883,1130.37 945.219,1180.79 966.555,1220.62 987.891,1170.46 1009.23,1287.03 
  1030.56,1243.83 1051.9,1278.67 1073.24,1227.78 1094.57,1222.59 1115.91,1226.43 1137.24,1118.33 1158.58,1158.69 1179.92,1173.86 1201.25,1185.14 1222.59,1223.78 
  1243.92,1197.36 1265.26,1210.71 1286.6,1330.89 1307.93,1325.96 1329.27,1161.94 1350.6,1127.25 1371.94,1002.88 1393.28,1016.51 1414.61,1037.55 1435.95,1150.41 
  1457.28,1087.38 1478.62,1183.49 1499.96,1330.65 1521.29,1288.69 1542.63,1261.52 1563.96,1248.44 1585.3,1217.16 1606.64,1214.34 1627.97,1216.76 1649.31,1267.82 
  1670.64,1236.28 1691.98,1304.85 1713.32,1307.65 1734.65,1176.31 1755.99,1142.29 1777.32,1181.96 1798.66,1119.96 1820,1166.67 1841.33,1127.63 1862.67,1146.69 
  1884,1176.29 1905.34,1179.26 1926.68,1144.23 1948.01,1004.05 1969.35,1332.9 1990.68,1325.28 2012.02,1349.71 2033.36,1250.6 2054.69,1239.06 2076.03,1062.94 
  2097.36,1184.61 2118.7,1296.66 2140.04,1300.17 2161.37,1295.74 2182.71,1298.85 2204.04,1311.67 2225.38,1283.27 2246.72,1320.94 2268.05,1269.48 2289.39,1328.14 
  
  "/>
<polyline clip-path="url(#clip7602)" style="stroke:#e26f46; stroke-width:4; stroke-opacity:1; fill:none" points="
  177.122,1291.14 198.458,1291.14 219.794,1297.86 241.13,1343.64 262.466,1335.27 283.803,1350.19 305.139,1348.87 326.475,1343.35 347.811,1358.93 369.147,1374.97 
  390.483,1380.85 411.819,1376.72 433.155,1351.88 454.491,1347.48 475.827,1377.07 497.163,1337.51 518.499,1336.41 539.835,1371.81 561.171,1342.57 582.507,1365.67 
  603.843,1372.93 625.179,1363.44 646.515,1390.28 667.851,1352.48 689.187,1390.26 710.523,1355.87 731.859,1312.26 753.195,1338.83 774.531,1335.78 795.867,1335.13 
  817.203,1365.53 838.539,1369.21 859.875,1380.04 881.211,1378.58 902.547,1380.41 923.883,1355.58 945.219,1367.58 966.555,1353.82 987.891,1359.53 1009.23,1391.81 
  1030.56,1380.82 1051.9,1388.87 1073.24,1364.86 1094.57,1339.86 1115.91,1363.51 1137.24,1375.64 1158.58,1362.6 1179.92,1372.58 1201.25,1384.5 1222.59,1383.49 
  1243.92,1379.75 1265.26,1386.96 1286.6,1358.1 1307.93,1360.14 1329.27,1375.94 1350.6,1352.06 1371.94,1355.84 1393.28,1364.12 1414.61,1336.25 1435.95,1324.74 
  1457.28,1322.64 1478.62,1372.52 1499.96,1385.2 1521.29,1371.96 1542.63,1380.45 1563.96,1361.36 1585.3,1364.58 1606.64,1355.82 1627.97,1379 1649.31,1358.27 
  1670.64,1381.41 1691.98,1380.3 1713.32,1379.88 1734.65,1356.47 1755.99,1351.94 1777.32,1377.43 1798.66,1367.67 1820,1345.15 1841.33,1376.99 1862.67,1343.28 
  1884,1353.1 1905.34,1347.36 1926.68,1361.7 1948.01,1338.53 1969.35,1377.43 1990.68,1366.81 2012.02,1394.9 2033.36,1374.57 2054.69,1365.05 2076.03,1355.6 
  2097.36,1375.67 2118.7,1372.58 2140.04,1375.42 2161.37,1372.22 2182.71,1384.29 2204.04,1376.16 2225.38,1380.87 2246.72,1383.67 2268.05,1388.39 2289.39,1374.91 
  
  "/>
<polyline clip-path="url(#clip7602)" style="stroke:#3da44d; stroke-width:4; stroke-opacity:1; fill:none" points="
  177.122,1045.51 198.458,1045.51 219.794,1434.72 241.13,1442.82 262.466,1444.43 283.803,1443.62 305.139,1445.27 326.475,1444.46 347.811,1444.1 369.147,1446.56 
  390.483,1446.22 411.819,1445.73 433.155,1443.22 454.491,1443.52 475.827,1444.95 497.163,1443.39 518.499,1446.71 539.835,1446.3 561.171,1440.71 582.507,1444.41 
  603.843,1441.13 625.179,1444.02 646.515,1444.37 667.851,1444.29 689.187,1445.49 710.523,1445.76 731.859,1443.1 753.195,1445.4 774.531,1445.31 795.867,1440.5 
  817.203,1445.89 838.539,1446.21 859.875,1442 881.211,1443.33 902.547,1443.46 923.883,1444.44 945.219,1443.47 966.555,1442.72 987.891,1441.31 1009.23,1445.79 
  1030.56,1445.19 1051.9,1446.18 1073.24,1443.01 1094.57,1442.99 1115.91,1444.27 1137.24,1445.53 1158.58,1445.99 1179.92,1445.48 1201.25,1443.88 1222.59,1443.68 
  1243.92,1445.14 1265.26,1444.84 1286.6,1442.5 1307.93,1442.95 1329.27,1443.31 1350.6,1445.75 1371.94,1442.68 1393.28,1443.59 1414.61,1444.45 1435.95,1444.19 
  1457.28,1444.45 1478.62,1443.86 1499.96,1444.07 1521.29,1442.9 1542.63,1445.65 1563.96,1444.93 1585.3,1444.81 1606.64,1444.5 1627.97,1443.32 1649.31,1444.31 
  1670.64,1443.35 1691.98,1444.75 1713.32,1445.06 1734.65,1443.72 1755.99,1442.54 1777.32,1445.34 1798.66,1443.21 1820,1443.91 1841.33,1444.76 1862.67,1444.81 
  1884,1444.34 1905.34,1443.61 1926.68,1445.14 1948.01,1441.43 1969.35,1443.51 1990.68,1444.55 2012.02,1442.28 2033.36,1445.53 2054.69,1443.51 2076.03,1445.17 
  2097.36,1446 2118.7,1442.73 2140.04,1442.09 2161.37,1442.76 2182.71,1444.64 2204.04,1443.74 2225.38,1444.59 2246.72,1443.42 2268.05,1442.56 2289.39,1444.2 
  
  "/>
<polygon clip-path="url(#clip7600)" points="
1639.47,372.684 2280.76,372.684 2280.76,130.764 1639.47,130.764 
  " fill="#ffffff" fill-rule="evenodd" fill-opacity="1"/>
<polyline clip-path="url(#clip7600)" style="stroke:#000000; stroke-width:4; stroke-opacity:1; fill:none" points="
  1639.47,372.684 2280.76,372.684 2280.76,130.764 1639.47,130.764 1639.47,372.684 
  "/>
<polyline clip-path="url(#clip7600)" style="stroke:#009af9; stroke-width:4; stroke-opacity:1; fill:none" points="
  1663.47,191.244 1807.47,191.244 
  "/>
<g clip-path="url(#clip7600)">
<text style="fill:#000000; fill-opacity:1; font-family:Arial,Helvetica Neue,Helvetica,sans-serif; font-size:48px; text-anchor:start;" transform="rotate(0, 1831.47, 208.744)" x="1831.47" y="208.744">variance</text>
</g>
<polyline clip-path="url(#clip7600)" style="stroke:#e26f46; stroke-width:4; stroke-opacity:1; fill:none" points="
  1663.47,251.724 1807.47,251.724 
  "/>
<g clip-path="url(#clip7600)">
<text style="fill:#000000; fill-opacity:1; font-family:Arial,Helvetica Neue,Helvetica,sans-serif; font-size:48px; text-anchor:start;" transform="rotate(0, 1831.47, 269.224)" x="1831.47" y="269.224">length scale</text>
</g>
<polyline clip-path="url(#clip7600)" style="stroke:#3da44d; stroke-width:4; stroke-opacity:1; fill:none" points="
  1663.47,312.204 1807.47,312.204 
  "/>
<g clip-path="url(#clip7600)">
<text style="fill:#000000; fill-opacity:1; font-family:Arial,Helvetica Neue,Helvetica,sans-serif; font-size:48px; text-anchor:start;" transform="rotate(0, 1831.47, 329.704)" x="1831.47" y="329.704">obs noise variance</text>
</g>
</svg>
