<?xml version="1.0" encoding="utf-8"?>
<svg xmlns="http://www.w3.org/2000/svg" xmlns:xlink="http://www.w3.org/1999/xlink" width="600" height="400" viewBox="0 0 2400 1600">
<defs>
  <clipPath id="clip7200">
    <rect x="0" y="0" width="2400" height="1600"/>
  </clipPath>
</defs>
<polygon clip-path="url(#clip7200)" points="
0,1600 2400,1600 2400,0 0,0 
  " fill="#ffffff" fill-rule="evenodd" fill-opacity="1"/>
<defs>
  <clipPath id="clip7201">
    <rect x="480" y="0" width="1681" height="1600"/>
  </clipPath>
</defs>
<polygon clip-path="url(#clip7200)" points="
141.865,1487.47 2352.76,1487.47 2352.76,47.2441 141.865,47.2441 
  " fill="#ffffff" fill-rule="evenodd" fill-opacity="1"/>
<defs>
  <clipPath id="clip7202">
    <rect x="141" y="47" width="2212" height="1441"/>
  </clipPath>
</defs>
<polyline clip-path="url(#clip7202)" style="stroke:#000000; stroke-width:2; stroke-opacity:0.1; fill:none" points="
  436.918,1487.47 436.918,47.2441 
  "/>
<polyline clip-path="url(#clip7202)" style="stroke:#000000; stroke-width:2; stroke-opacity:0.1; fill:none" points="
  877.365,1487.47 877.365,47.2441 
  "/>
<polyline clip-path="url(#clip7202)" style="stroke:#000000; stroke-width:2; stroke-opacity:0.1; fill:none" points="
  1317.81,1487.47 1317.81,47.2441 
  "/>
<polyline clip-path="url(#clip7202)" style="stroke:#000000; stroke-width:2; stroke-opacity:0.1; fill:none" points="
  1758.26,1487.47 1758.26,47.2441 
  "/>
<polyline clip-path="url(#clip7202)" style="stroke:#000000; stroke-width:2; stroke-opacity:0.1; fill:none" points="
  2198.7,1487.47 2198.7,47.2441 
  "/>
<polyline clip-path="url(#clip7202)" style="stroke:#000000; stroke-width:2; stroke-opacity:0.1; fill:none" points="
  141.865,1437.91 2352.76,1437.91 
  "/>
<polyline clip-path="url(#clip7202)" style="stroke:#000000; stroke-width:2; stroke-opacity:0.1; fill:none" points="
  141.865,1115.99 2352.76,1115.99 
  "/>
<polyline clip-path="url(#clip7202)" style="stroke:#000000; stroke-width:2; stroke-opacity:0.1; fill:none" points="
  141.865,794.076 2352.76,794.076 
  "/>
<polyline clip-path="url(#clip7202)" style="stroke:#000000; stroke-width:2; stroke-opacity:0.1; fill:none" points="
  141.865,472.158 2352.76,472.158 
  "/>
<polyline clip-path="url(#clip7202)" style="stroke:#000000; stroke-width:2; stroke-opacity:0.1; fill:none" points="
  141.865,150.241 2352.76,150.241 
  "/>
<polyline clip-path="url(#clip7200)" style="stroke:#000000; stroke-width:4; stroke-opacity:1; fill:none" points="
  141.865,1487.47 2352.76,1487.47 
  "/>
<polyline clip-path="url(#clip7200)" style="stroke:#000000; stroke-width:4; stroke-opacity:1; fill:none" points="
  141.865,1487.47 141.865,47.2441 
  "/>
<polyline clip-path="url(#clip7200)" style="stroke:#000000; stroke-width:4; stroke-opacity:1; fill:none" points="
  436.918,1487.47 436.918,1465.87 
  "/>
<polyline clip-path="url(#clip7200)" style="stroke:#000000; stroke-width:4; stroke-opacity:1; fill:none" points="
  877.365,1487.47 877.365,1465.87 
  "/>
<polyline clip-path="url(#clip7200)" style="stroke:#000000; stroke-width:4; stroke-opacity:1; fill:none" points="
  1317.81,1487.47 1317.81,1465.87 
  "/>
<polyline clip-path="url(#clip7200)" style="stroke:#000000; stroke-width:4; stroke-opacity:1; fill:none" points="
  1758.26,1487.47 1758.26,1465.87 
  "/>
<polyline clip-path="url(#clip7200)" style="stroke:#000000; stroke-width:4; stroke-opacity:1; fill:none" points="
  2198.7,1487.47 2198.7,1465.87 
  "/>
<polyline clip-path="url(#clip7200)" style="stroke:#000000; stroke-width:4; stroke-opacity:1; fill:none" points="
  141.865,1437.91 175.028,1437.91 
  "/>
<polyline clip-path="url(#clip7200)" style="stroke:#000000; stroke-width:4; stroke-opacity:1; fill:none" points="
  141.865,1115.99 175.028,1115.99 
  "/>
<polyline clip-path="url(#clip7200)" style="stroke:#000000; stroke-width:4; stroke-opacity:1; fill:none" points="
  141.865,794.076 175.028,794.076 
  "/>
<polyline clip-path="url(#clip7200)" style="stroke:#000000; stroke-width:4; stroke-opacity:1; fill:none" points="
  141.865,472.158 175.028,472.158 
  "/>
<polyline clip-path="url(#clip7200)" style="stroke:#000000; stroke-width:4; stroke-opacity:1; fill:none" points="
  141.865,150.241 175.028,150.241 
  "/>
<g clip-path="url(#clip7200)">
<text style="fill:#000000; fill-opacity:1; font-family:Arial,Helvetica Neue,Helvetica,sans-serif; font-size:48px; text-anchor:middle;" transform="rotate(0, 436.918, 1541.47)" x="436.918" y="1541.47">-2</text>
</g>
<g clip-path="url(#clip7200)">
<text style="fill:#000000; fill-opacity:1; font-family:Arial,Helvetica Neue,Helvetica,sans-serif; font-size:48px; text-anchor:middle;" transform="rotate(0, 877.365, 1541.47)" x="877.365" y="1541.47">-1</text>
</g>
<g clip-path="url(#clip7200)">
<text style="fill:#000000; fill-opacity:1; font-family:Arial,Helvetica Neue,Helvetica,sans-serif; font-size:48px; text-anchor:middle;" transform="rotate(0, 1317.81, 1541.47)" x="1317.81" y="1541.47">0</text>
</g>
<g clip-path="url(#clip7200)">
<text style="fill:#000000; fill-opacity:1; font-family:Arial,Helvetica Neue,Helvetica,sans-serif; font-size:48px; text-anchor:middle;" transform="rotate(0, 1758.26, 1541.47)" x="1758.26" y="1541.47">1</text>
</g>
<g clip-path="url(#clip7200)">
<text style="fill:#000000; fill-opacity:1; font-family:Arial,Helvetica Neue,Helvetica,sans-serif; font-size:48px; text-anchor:middle;" transform="rotate(0, 2198.7, 1541.47)" x="2198.7" y="1541.47">2</text>
</g>
<g clip-path="url(#clip7200)">
<text style="fill:#000000; fill-opacity:1; font-family:Arial,Helvetica Neue,Helvetica,sans-serif; font-size:48px; text-anchor:end;" transform="rotate(0, 117.865, 1455.41)" x="117.865" y="1455.41">-2</text>
</g>
<g clip-path="url(#clip7200)">
<text style="fill:#000000; fill-opacity:1; font-family:Arial,Helvetica Neue,Helvetica,sans-serif; font-size:48px; text-anchor:end;" transform="rotate(0, 117.865, 1133.49)" x="117.865" y="1133.49">-1</text>
</g>
<g clip-path="url(#clip7200)">
<text style="fill:#000000; fill-opacity:1; font-family:Arial,Helvetica Neue,Helvetica,sans-serif; font-size:48px; text-anchor:end;" transform="rotate(0, 117.865, 811.576)" x="117.865" y="811.576">0</text>
</g>
<g clip-path="url(#clip7200)">
<text style="fill:#000000; fill-opacity:1; font-family:Arial,Helvetica Neue,Helvetica,sans-serif; font-size:48px; text-anchor:end;" transform="rotate(0, 117.865, 489.658)" x="117.865" y="489.658">1</text>
</g>
<g clip-path="url(#clip7200)">
<text style="fill:#000000; fill-opacity:1; font-family:Arial,Helvetica Neue,Helvetica,sans-serif; font-size:48px; text-anchor:end;" transform="rotate(0, 117.865, 167.741)" x="117.865" y="167.741">2</text>
</g>
<circle clip-path="url(#clip7202)" style="fill:#000000; stroke:none; fill-opacity:1" cx="1376.91" cy="641.03" r="18"/>
<circle clip-path="url(#clip7202)" style="fill:#ff0000; stroke:none; fill-opacity:1" cx="1376.91" cy="641.03" r="14"/>
<circle clip-path="url(#clip7202)" style="fill:#000000; stroke:none; fill-opacity:1" cx="1145.79" cy="1108.04" r="18"/>
<circle clip-path="url(#clip7202)" style="fill:#ff0000; stroke:none; fill-opacity:1" cx="1145.79" cy="1108.04" r="14"/>
<circle clip-path="url(#clip7202)" style="fill:#000000; stroke:none; fill-opacity:1" cx="516.584" cy="1067.59" r="18"/>
<circle clip-path="url(#clip7202)" style="fill:#ff0000; stroke:none; fill-opacity:1" cx="516.584" cy="1067.59" r="14"/>
<circle clip-path="url(#clip7202)" style="fill:#000000; stroke:none; fill-opacity:1" cx="566.834" cy="1087.6" r="18"/>
<circle clip-path="url(#clip7202)" style="fill:#ff0000; stroke:none; fill-opacity:1" cx="566.834" cy="1087.6" r="14"/>
<circle clip-path="url(#clip7202)" style="fill:#000000; stroke:none; fill-opacity:1" cx="1492.19" cy="826.786" r="18"/>
<circle clip-path="url(#clip7202)" style="fill:#ff0000; stroke:none; fill-opacity:1" cx="1492.19" cy="826.786" r="14"/>
<circle clip-path="url(#clip7202)" style="fill:#000000; stroke:none; fill-opacity:1" cx="1185.95" cy="1137.39" r="18"/>
<circle clip-path="url(#clip7202)" style="fill:#ff0000; stroke:none; fill-opacity:1" cx="1185.95" cy="1137.39" r="14"/>
<circle clip-path="url(#clip7202)" style="fill:#000000; stroke:none; fill-opacity:1" cx="1266.94" cy="837.897" r="18"/>
<circle clip-path="url(#clip7202)" style="fill:#ff0000; stroke:none; fill-opacity:1" cx="1266.94" cy="837.897" r="14"/>
<circle clip-path="url(#clip7202)" style="fill:#000000; stroke:none; fill-opacity:1" cx="1471.84" cy="940.839" r="18"/>
<circle clip-path="url(#clip7202)" style="fill:#ff0000; stroke:none; fill-opacity:1" cx="1471.84" cy="940.839" r="14"/>
<circle clip-path="url(#clip7202)" style="fill:#000000; stroke:none; fill-opacity:1" cx="1093.44" cy="1099.89" r="18"/>
<circle clip-path="url(#clip7202)" style="fill:#ff0000; stroke:none; fill-opacity:1" cx="1093.44" cy="1099.89" r="14"/>
<circle clip-path="url(#clip7202)" style="fill:#000000; stroke:none; fill-opacity:1" cx="643.624" cy="1288.54" r="18"/>
<circle clip-path="url(#clip7202)" style="fill:#ff0000; stroke:none; fill-opacity:1" cx="643.624" cy="1288.54" r="14"/>
<circle clip-path="url(#clip7202)" style="fill:#000000; stroke:none; fill-opacity:1" cx="1358.27" cy="771.027" r="18"/>
<circle clip-path="url(#clip7202)" style="fill:#ff0000; stroke:none; fill-opacity:1" cx="1358.27" cy="771.027" r="14"/>
<circle clip-path="url(#clip7202)" style="fill:#000000; stroke:none; fill-opacity:1" cx="2005.4" cy="351.824" r="18"/>
<circle clip-path="url(#clip7202)" style="fill:#ff0000; stroke:none; fill-opacity:1" cx="2005.4" cy="351.824" r="14"/>
<circle clip-path="url(#clip7202)" style="fill:#000000; stroke:none; fill-opacity:1" cx="486.211" cy="1046.39" r="18"/>
<circle clip-path="url(#clip7202)" style="fill:#ff0000; stroke:none; fill-opacity:1" cx="486.211" cy="1046.39" r="14"/>
<circle clip-path="url(#clip7202)" style="fill:#000000; stroke:none; fill-opacity:1" cx="873.263" cy="1125.55" r="18"/>
<circle clip-path="url(#clip7202)" style="fill:#ff0000; stroke:none; fill-opacity:1" cx="873.263" cy="1125.55" r="14"/>
<circle clip-path="url(#clip7202)" style="fill:#000000; stroke:none; fill-opacity:1" cx="1559.34" cy="842.736" r="18"/>
<circle clip-path="url(#clip7202)" style="fill:#ff0000; stroke:none; fill-opacity:1" cx="1559.34" cy="842.736" r="14"/>
<circle clip-path="url(#clip7202)" style="fill:#000000; stroke:none; fill-opacity:1" cx="1692.49" cy="515.812" r="18"/>
<circle clip-path="url(#clip7202)" style="fill:#ff0000; stroke:none; fill-opacity:1" cx="1692.49" cy="515.812" r="14"/>
<circle clip-path="url(#clip7202)" style="fill:#000000; stroke:none; fill-opacity:1" cx="770.255" cy="1446.71" r="18"/>
<circle clip-path="url(#clip7202)" style="fill:#ff0000; stroke:none; fill-opacity:1" cx="770.255" cy="1446.71" r="14"/>
<circle clip-path="url(#clip7202)" style="fill:#000000; stroke:none; fill-opacity:1" cx="1290.51" cy="570.993" r="18"/>
<circle clip-path="url(#clip7202)" style="fill:#ff0000; stroke:none; fill-opacity:1" cx="1290.51" cy="570.993" r="14"/>
<circle clip-path="url(#clip7202)" style="fill:#000000; stroke:none; fill-opacity:1" cx="1638.99" cy="637.241" r="18"/>
<circle clip-path="url(#clip7202)" style="fill:#ff0000; stroke:none; fill-opacity:1" cx="1638.99" cy="637.241" r="14"/>
<circle clip-path="url(#clip7202)" style="fill:#000000; stroke:none; fill-opacity:1" cx="466.965" cy="1135.55" r="18"/>
<circle clip-path="url(#clip7202)" style="fill:#ff0000; stroke:none; fill-opacity:1" cx="466.965" cy="1135.55" r="14"/>
<circle clip-path="url(#clip7202)" style="fill:#000000; stroke:none; fill-opacity:1" cx="1864.88" cy="235.461" r="18"/>
<circle clip-path="url(#clip7202)" style="fill:#ff0000; stroke:none; fill-opacity:1" cx="1864.88" cy="235.461" r="14"/>
<circle clip-path="url(#clip7202)" style="fill:#000000; stroke:none; fill-opacity:1" cx="2122.29" cy="698.548" r="18"/>
<circle clip-path="url(#clip7202)" style="fill:#ff0000; stroke:none; fill-opacity:1" cx="2122.29" cy="698.548" r="14"/>
<circle clip-path="url(#clip7202)" style="fill:#000000; stroke:none; fill-opacity:1" cx="1005.12" cy="1010.02" r="18"/>
<circle clip-path="url(#clip7202)" style="fill:#ff0000; stroke:none; fill-opacity:1" cx="1005.12" cy="1010.02" r="14"/>
<circle clip-path="url(#clip7202)" style="fill:#000000; stroke:none; fill-opacity:1" cx="1132.14" cy="1013.64" r="18"/>
<circle clip-path="url(#clip7202)" style="fill:#ff0000; stroke:none; fill-opacity:1" cx="1132.14" cy="1013.64" r="14"/>
<circle clip-path="url(#clip7202)" style="fill:#000000; stroke:none; fill-opacity:1" cx="1880.94" cy="349.048" r="18"/>
<circle clip-path="url(#clip7202)" style="fill:#ff0000; stroke:none; fill-opacity:1" cx="1880.94" cy="349.048" r="14"/>
<circle clip-path="url(#clip7202)" style="fill:#000000; stroke:none; fill-opacity:1" cx="960.716" cy="1039.65" r="18"/>
<circle clip-path="url(#clip7202)" style="fill:#ff0000; stroke:none; fill-opacity:1" cx="960.716" cy="1039.65" r="14"/>
<circle clip-path="url(#clip7202)" style="fill:#000000; stroke:none; fill-opacity:1" cx="1269.25" cy="613.237" r="18"/>
<circle clip-path="url(#clip7202)" style="fill:#ff0000; stroke:none; fill-opacity:1" cx="1269.25" cy="613.237" r="14"/>
<circle clip-path="url(#clip7202)" style="fill:#000000; stroke:none; fill-opacity:1" cx="1634.24" cy="642.789" r="18"/>
<circle clip-path="url(#clip7202)" style="fill:#ff0000; stroke:none; fill-opacity:1" cx="1634.24" cy="642.789" r="14"/>
<circle clip-path="url(#clip7202)" style="fill:#000000; stroke:none; fill-opacity:1" cx="1821.85" cy="262.475" r="18"/>
<circle clip-path="url(#clip7202)" style="fill:#ff0000; stroke:none; fill-opacity:1" cx="1821.85" cy="262.475" r="14"/>
<circle clip-path="url(#clip7202)" style="fill:#000000; stroke:none; fill-opacity:1" cx="1611.74" cy="722.988" r="18"/>
<circle clip-path="url(#clip7202)" style="fill:#ff0000; stroke:none; fill-opacity:1" cx="1611.74" cy="722.988" r="14"/>
<circle clip-path="url(#clip7202)" style="fill:#000000; stroke:none; fill-opacity:1" cx="1889.03" cy="172.263" r="18"/>
<circle clip-path="url(#clip7202)" style="fill:#ff0000; stroke:none; fill-opacity:1" cx="1889.03" cy="172.263" r="14"/>
<circle clip-path="url(#clip7202)" style="fill:#000000; stroke:none; fill-opacity:1" cx="929.546" cy="991.06" r="18"/>
<circle clip-path="url(#clip7202)" style="fill:#ff0000; stroke:none; fill-opacity:1" cx="929.546" cy="991.06" r="14"/>
<circle clip-path="url(#clip7202)" style="fill:#000000; stroke:none; fill-opacity:1" cx="1504.39" cy="951.589" r="18"/>
<circle clip-path="url(#clip7202)" style="fill:#ff0000; stroke:none; fill-opacity:1" cx="1504.39" cy="951.589" r="14"/>
<circle clip-path="url(#clip7202)" style="fill:#000000; stroke:none; fill-opacity:1" cx="1487.72" cy="1008.54" r="18"/>
<circle clip-path="url(#clip7202)" style="fill:#ff0000; stroke:none; fill-opacity:1" cx="1487.72" cy="1008.54" r="14"/>
<circle clip-path="url(#clip7202)" style="fill:#000000; stroke:none; fill-opacity:1" cx="953.454" cy="1181.47" r="18"/>
<circle clip-path="url(#clip7202)" style="fill:#ff0000; stroke:none; fill-opacity:1" cx="953.454" cy="1181.47" r="14"/>
<circle clip-path="url(#clip7202)" style="fill:#000000; stroke:none; fill-opacity:1" cx="2145.15" cy="737.935" r="18"/>
<circle clip-path="url(#clip7202)" style="fill:#ff0000; stroke:none; fill-opacity:1" cx="2145.15" cy="737.935" r="14"/>
<circle clip-path="url(#clip7202)" style="fill:#000000; stroke:none; fill-opacity:1" cx="780.323" cy="1261.67" r="18"/>
<circle clip-path="url(#clip7202)" style="fill:#ff0000; stroke:none; fill-opacity:1" cx="780.323" cy="1261.67" r="14"/>
<circle clip-path="url(#clip7202)" style="fill:#000000; stroke:none; fill-opacity:1" cx="894.44" cy="930.336" r="18"/>
<circle clip-path="url(#clip7202)" style="fill:#ff0000; stroke:none; fill-opacity:1" cx="894.44" cy="930.336" r="14"/>
<circle clip-path="url(#clip7202)" style="fill:#000000; stroke:none; fill-opacity:1" cx="1000.95" cy="1007.32" r="18"/>
<circle clip-path="url(#clip7202)" style="fill:#ff0000; stroke:none; fill-opacity:1" cx="1000.95" cy="1007.32" r="14"/>
<circle clip-path="url(#clip7202)" style="fill:#000000; stroke:none; fill-opacity:1" cx="2046.85" cy="452.002" r="18"/>
<circle clip-path="url(#clip7202)" style="fill:#ff0000; stroke:none; fill-opacity:1" cx="2046.85" cy="452.002" r="14"/>
<circle clip-path="url(#clip7202)" style="fill:#000000; stroke:none; fill-opacity:1" cx="286.725" cy="1268.26" r="18"/>
<circle clip-path="url(#clip7202)" style="fill:#ff0000; stroke:none; fill-opacity:1" cx="286.725" cy="1268.26" r="14"/>
<circle clip-path="url(#clip7202)" style="fill:#000000; stroke:none; fill-opacity:1" cx="1128.99" cy="993.872" r="18"/>
<circle clip-path="url(#clip7202)" style="fill:#ff0000; stroke:none; fill-opacity:1" cx="1128.99" cy="993.872" r="14"/>
<circle clip-path="url(#clip7202)" style="fill:#000000; stroke:none; fill-opacity:1" cx="1396.12" cy="836.561" r="18"/>
<circle clip-path="url(#clip7202)" style="fill:#ff0000; stroke:none; fill-opacity:1" cx="1396.12" cy="836.561" r="14"/>
<circle clip-path="url(#clip7202)" style="fill:#000000; stroke:none; fill-opacity:1" cx="709.681" cy="1177.25" r="18"/>
<circle clip-path="url(#clip7202)" style="fill:#ff0000; stroke:none; fill-opacity:1" cx="709.681" cy="1177.25" r="14"/>
<circle clip-path="url(#clip7202)" style="fill:#000000; stroke:none; fill-opacity:1" cx="1160.22" cy="1129.01" r="18"/>
<circle clip-path="url(#clip7202)" style="fill:#ff0000; stroke:none; fill-opacity:1" cx="1160.22" cy="1129.01" r="14"/>
<circle clip-path="url(#clip7202)" style="fill:#000000; stroke:none; fill-opacity:1" cx="2290.18" cy="485.49" r="18"/>
<circle clip-path="url(#clip7202)" style="fill:#ff0000; stroke:none; fill-opacity:1" cx="2290.18" cy="485.49" r="14"/>
<circle clip-path="url(#clip7202)" style="fill:#000000; stroke:none; fill-opacity:1" cx="2118.99" cy="556.544" r="18"/>
<circle clip-path="url(#clip7202)" style="fill:#ff0000; stroke:none; fill-opacity:1" cx="2118.99" cy="556.544" r="14"/>
<circle clip-path="url(#clip7202)" style="fill:#000000; stroke:none; fill-opacity:1" cx="729.998" cy="1284.8" r="18"/>
<circle clip-path="url(#clip7202)" style="fill:#ff0000; stroke:none; fill-opacity:1" cx="729.998" cy="1284.8" r="14"/>
<circle clip-path="url(#clip7202)" style="fill:#000000; stroke:none; fill-opacity:1" cx="997.703" cy="949.037" r="18"/>
<circle clip-path="url(#clip7202)" style="fill:#ff0000; stroke:none; fill-opacity:1" cx="997.703" cy="949.037" r="14"/>
<circle clip-path="url(#clip7202)" style="fill:#000000; stroke:none; fill-opacity:1" cx="1178.31" cy="1099.77" r="18"/>
<circle clip-path="url(#clip7202)" style="fill:#ff0000; stroke:none; fill-opacity:1" cx="1178.31" cy="1099.77" r="14"/>
<circle clip-path="url(#clip7202)" style="fill:#000000; stroke:none; fill-opacity:1" cx="1650.08" cy="519.674" r="18"/>
<circle clip-path="url(#clip7202)" style="fill:#ff0000; stroke:none; fill-opacity:1" cx="1650.08" cy="519.674" r="14"/>
<circle clip-path="url(#clip7202)" style="fill:#000000; stroke:none; fill-opacity:1" cx="1162.18" cy="1063.67" r="18"/>
<circle clip-path="url(#clip7202)" style="fill:#ff0000; stroke:none; fill-opacity:1" cx="1162.18" cy="1063.67" r="14"/>
<circle clip-path="url(#clip7202)" style="fill:#000000; stroke:none; fill-opacity:1" cx="1532.68" cy="993.068" r="18"/>
<circle clip-path="url(#clip7202)" style="fill:#ff0000; stroke:none; fill-opacity:1" cx="1532.68" cy="993.068" r="14"/>
<circle clip-path="url(#clip7202)" style="fill:#000000; stroke:none; fill-opacity:1" cx="782.219" cy="1284.61" r="18"/>
<circle clip-path="url(#clip7202)" style="fill:#ff0000; stroke:none; fill-opacity:1" cx="782.219" cy="1284.61" r="14"/>
<circle clip-path="url(#clip7202)" style="fill:#000000; stroke:none; fill-opacity:1" cx="1309.4" cy="503.691" r="18"/>
<circle clip-path="url(#clip7202)" style="fill:#ff0000; stroke:none; fill-opacity:1" cx="1309.4" cy="503.691" r="14"/>
<circle clip-path="url(#clip7202)" style="fill:#000000; stroke:none; fill-opacity:1" cx="978.573" cy="929.897" r="18"/>
<circle clip-path="url(#clip7202)" style="fill:#ff0000; stroke:none; fill-opacity:1" cx="978.573" cy="929.897" r="14"/>
<circle clip-path="url(#clip7202)" style="fill:#000000; stroke:none; fill-opacity:1" cx="838.85" cy="1123.26" r="18"/>
<circle clip-path="url(#clip7202)" style="fill:#ff0000; stroke:none; fill-opacity:1" cx="838.85" cy="1123.26" r="14"/>
<circle clip-path="url(#clip7202)" style="fill:#000000; stroke:none; fill-opacity:1" cx="1465.73" cy="934.19" r="18"/>
<circle clip-path="url(#clip7202)" style="fill:#ff0000; stroke:none; fill-opacity:1" cx="1465.73" cy="934.19" r="14"/>
<circle clip-path="url(#clip7202)" style="fill:#000000; stroke:none; fill-opacity:1" cx="1501.18" cy="1049.6" r="18"/>
<circle clip-path="url(#clip7202)" style="fill:#ff0000; stroke:none; fill-opacity:1" cx="1501.18" cy="1049.6" r="14"/>
<circle clip-path="url(#clip7202)" style="fill:#000000; stroke:none; fill-opacity:1" cx="1494.19" cy="1049.69" r="18"/>
<circle clip-path="url(#clip7202)" style="fill:#ff0000; stroke:none; fill-opacity:1" cx="1494.19" cy="1049.69" r="14"/>
<circle clip-path="url(#clip7202)" style="fill:#000000; stroke:none; fill-opacity:1" cx="1556.87" cy="943.704" r="18"/>
<circle clip-path="url(#clip7202)" style="fill:#ff0000; stroke:none; fill-opacity:1" cx="1556.87" cy="943.704" r="14"/>
<circle clip-path="url(#clip7202)" style="fill:#000000; stroke:none; fill-opacity:1" cx="285.968" cy="1322.14" r="18"/>
<circle clip-path="url(#clip7202)" style="fill:#ff0000; stroke:none; fill-opacity:1" cx="285.968" cy="1322.14" r="14"/>
<circle clip-path="url(#clip7202)" style="fill:#000000; stroke:none; fill-opacity:1" cx="968.908" cy="817.442" r="18"/>
<circle clip-path="url(#clip7202)" style="fill:#ff0000; stroke:none; fill-opacity:1" cx="968.908" cy="817.442" r="14"/>
<circle clip-path="url(#clip7202)" style="fill:#000000; stroke:none; fill-opacity:1" cx="856.538" cy="1017.05" r="18"/>
<circle clip-path="url(#clip7202)" style="fill:#ff0000; stroke:none; fill-opacity:1" cx="856.538" cy="1017.05" r="14"/>
<circle clip-path="url(#clip7202)" style="fill:#000000; stroke:none; fill-opacity:1" cx="204.437" cy="1201.35" r="18"/>
<circle clip-path="url(#clip7202)" style="fill:#ff0000; stroke:none; fill-opacity:1" cx="204.437" cy="1201.35" r="14"/>
<circle clip-path="url(#clip7202)" style="fill:#000000; stroke:none; fill-opacity:1" cx="1223" cy="867.544" r="18"/>
<circle clip-path="url(#clip7202)" style="fill:#ff0000; stroke:none; fill-opacity:1" cx="1223" cy="867.544" r="14"/>
<circle clip-path="url(#clip7202)" style="fill:#000000; stroke:none; fill-opacity:1" cx="1829.32" cy="262.941" r="18"/>
<circle clip-path="url(#clip7202)" style="fill:#ff0000; stroke:none; fill-opacity:1" cx="1829.32" cy="262.941" r="14"/>
<circle clip-path="url(#clip7202)" style="fill:#000000; stroke:none; fill-opacity:1" cx="1794.26" cy="88.0053" r="18"/>
<circle clip-path="url(#clip7202)" style="fill:#ff0000; stroke:none; fill-opacity:1" cx="1794.26" cy="88.0053" r="14"/>
<circle clip-path="url(#clip7202)" style="fill:#000000; stroke:none; fill-opacity:1" cx="1048.81" cy="1043.61" r="18"/>
<circle clip-path="url(#clip7202)" style="fill:#ff0000; stroke:none; fill-opacity:1" cx="1048.81" cy="1043.61" r="14"/>
<circle clip-path="url(#clip7202)" style="fill:#000000; stroke:none; fill-opacity:1" cx="970.846" cy="967.044" r="18"/>
<circle clip-path="url(#clip7202)" style="fill:#ff0000; stroke:none; fill-opacity:1" cx="970.846" cy="967.044" r="14"/>
<circle clip-path="url(#clip7202)" style="fill:#000000; stroke:none; fill-opacity:1" cx="1340.89" cy="687.274" r="18"/>
<circle clip-path="url(#clip7202)" style="fill:#ff0000; stroke:none; fill-opacity:1" cx="1340.89" cy="687.274" r="14"/>
<circle clip-path="url(#clip7202)" style="fill:#000000; stroke:none; fill-opacity:1" cx="1005.85" cy="939.977" r="18"/>
<circle clip-path="url(#clip7202)" style="fill:#ff0000; stroke:none; fill-opacity:1" cx="1005.85" cy="939.977" r="14"/>
<circle clip-path="url(#clip7202)" style="fill:#000000; stroke:none; fill-opacity:1" cx="1137.02" cy="1136.78" r="18"/>
<circle clip-path="url(#clip7202)" style="fill:#ff0000; stroke:none; fill-opacity:1" cx="1137.02" cy="1136.78" r="14"/>
<circle clip-path="url(#clip7202)" style="fill:#000000; stroke:none; fill-opacity:1" cx="1767.59" cy="383.607" r="18"/>
<circle clip-path="url(#clip7202)" style="fill:#ff0000; stroke:none; fill-opacity:1" cx="1767.59" cy="383.607" r="14"/>
<circle clip-path="url(#clip7202)" style="fill:#000000; stroke:none; fill-opacity:1" cx="1128.34" cy="1113.22" r="18"/>
<circle clip-path="url(#clip7202)" style="fill:#ff0000; stroke:none; fill-opacity:1" cx="1128.34" cy="1113.22" r="14"/>
<circle clip-path="url(#clip7202)" style="fill:#000000; stroke:none; fill-opacity:1" cx="534.66" cy="1047.41" r="18"/>
<circle clip-path="url(#clip7202)" style="fill:#ff0000; stroke:none; fill-opacity:1" cx="534.66" cy="1047.41" r="14"/>
<circle clip-path="url(#clip7202)" style="fill:#000000; stroke:none; fill-opacity:1" cx="1062.62" cy="987.689" r="18"/>
<circle clip-path="url(#clip7202)" style="fill:#ff0000; stroke:none; fill-opacity:1" cx="1062.62" cy="987.689" r="14"/>
<circle clip-path="url(#clip7202)" style="fill:#000000; stroke:none; fill-opacity:1" cx="1273.28" cy="761.929" r="18"/>
<circle clip-path="url(#clip7202)" style="fill:#ff0000; stroke:none; fill-opacity:1" cx="1273.28" cy="761.929" r="14"/>
<circle clip-path="url(#clip7202)" style="fill:#000000; stroke:none; fill-opacity:1" cx="1030.58" cy="874.149" r="18"/>
<circle clip-path="url(#clip7202)" style="fill:#ff0000; stroke:none; fill-opacity:1" cx="1030.58" cy="874.149" r="14"/>
<circle clip-path="url(#clip7202)" style="fill:#000000; stroke:none; fill-opacity:1" cx="1343.43" cy="582.968" r="18"/>
<circle clip-path="url(#clip7202)" style="fill:#ff0000; stroke:none; fill-opacity:1" cx="1343.43" cy="582.968" r="14"/>
<circle clip-path="url(#clip7202)" style="fill:#000000; stroke:none; fill-opacity:1" cx="1159.09" cy="1154.82" r="18"/>
<circle clip-path="url(#clip7202)" style="fill:#ff0000; stroke:none; fill-opacity:1" cx="1159.09" cy="1154.82" r="14"/>
<circle clip-path="url(#clip7202)" style="fill:#000000; stroke:none; fill-opacity:1" cx="1699.17" cy="501.301" r="18"/>
<circle clip-path="url(#clip7202)" style="fill:#ff0000; stroke:none; fill-opacity:1" cx="1699.17" cy="501.301" r="14"/>
<circle clip-path="url(#clip7202)" style="fill:#000000; stroke:none; fill-opacity:1" cx="1110.52" cy="1268.81" r="18"/>
<circle clip-path="url(#clip7202)" style="fill:#ff0000; stroke:none; fill-opacity:1" cx="1110.52" cy="1268.81" r="14"/>
<circle clip-path="url(#clip7202)" style="fill:#000000; stroke:none; fill-opacity:1" cx="745.029" cy="1355.29" r="18"/>
<circle clip-path="url(#clip7202)" style="fill:#ff0000; stroke:none; fill-opacity:1" cx="745.029" cy="1355.29" r="14"/>
<circle clip-path="url(#clip7202)" style="fill:#000000; stroke:none; fill-opacity:1" cx="1479.98" cy="984.248" r="18"/>
<circle clip-path="url(#clip7202)" style="fill:#ff0000; stroke:none; fill-opacity:1" cx="1479.98" cy="984.248" r="14"/>
<circle clip-path="url(#clip7202)" style="fill:#000000; stroke:none; fill-opacity:1" cx="1430.87" cy="797.773" r="18"/>
<circle clip-path="url(#clip7202)" style="fill:#ff0000; stroke:none; fill-opacity:1" cx="1430.87" cy="797.773" r="14"/>
<circle clip-path="url(#clip7202)" style="fill:#000000; stroke:none; fill-opacity:1" cx="513.633" cy="1026.43" r="18"/>
<circle clip-path="url(#clip7202)" style="fill:#ff0000; stroke:none; fill-opacity:1" cx="513.633" cy="1026.43" r="14"/>
<circle clip-path="url(#clip7202)" style="fill:#000000; stroke:none; fill-opacity:1" cx="1273.1" cy="619.441" r="18"/>
<circle clip-path="url(#clip7202)" style="fill:#ff0000; stroke:none; fill-opacity:1" cx="1273.1" cy="619.441" r="14"/>
<circle clip-path="url(#clip7202)" style="fill:#000000; stroke:none; fill-opacity:1" cx="1404.57" cy="789.754" r="18"/>
<circle clip-path="url(#clip7202)" style="fill:#ff0000; stroke:none; fill-opacity:1" cx="1404.57" cy="789.754" r="14"/>
<circle clip-path="url(#clip7202)" style="fill:#000000; stroke:none; fill-opacity:1" cx="1961.32" cy="230.458" r="18"/>
<circle clip-path="url(#clip7202)" style="fill:#ff0000; stroke:none; fill-opacity:1" cx="1961.32" cy="230.458" r="14"/>
<circle clip-path="url(#clip7202)" style="fill:#000000; stroke:none; fill-opacity:1" cx="1419.68" cy="686.928" r="18"/>
<circle clip-path="url(#clip7202)" style="fill:#ff0000; stroke:none; fill-opacity:1" cx="1419.68" cy="686.928" r="14"/>
<circle clip-path="url(#clip7202)" style="fill:#000000; stroke:none; fill-opacity:1" cx="1753.17" cy="304.444" r="18"/>
<circle clip-path="url(#clip7202)" style="fill:#ff0000; stroke:none; fill-opacity:1" cx="1753.17" cy="304.444" r="14"/>
<circle clip-path="url(#clip7202)" style="fill:#000000; stroke:none; fill-opacity:1" cx="801.396" cy="1196.07" r="18"/>
<circle clip-path="url(#clip7202)" style="fill:#ff0000; stroke:none; fill-opacity:1" cx="801.396" cy="1196.07" r="14"/>
<circle clip-path="url(#clip7202)" style="fill:#000000; stroke:none; fill-opacity:1" cx="1732.41" cy="332.142" r="18"/>
<circle clip-path="url(#clip7202)" style="fill:#ff0000; stroke:none; fill-opacity:1" cx="1732.41" cy="332.142" r="14"/>
<circle clip-path="url(#clip7202)" style="fill:#000000; stroke:none; fill-opacity:1" cx="1144.49" cy="1027.67" r="18"/>
<circle clip-path="url(#clip7202)" style="fill:#ff0000; stroke:none; fill-opacity:1" cx="1144.49" cy="1027.67" r="14"/>
<circle clip-path="url(#clip7202)" style="fill:#000000; stroke:none; fill-opacity:1" cx="1431.41" cy="856.326" r="18"/>
<circle clip-path="url(#clip7202)" style="fill:#ff0000; stroke:none; fill-opacity:1" cx="1431.41" cy="856.326" r="14"/>
<circle clip-path="url(#clip7202)" style="fill:#000000; stroke:none; fill-opacity:1" cx="1286.25" cy="579.801" r="18"/>
<circle clip-path="url(#clip7202)" style="fill:#ff0000; stroke:none; fill-opacity:1" cx="1286.25" cy="579.801" r="14"/>
<circle clip-path="url(#clip7202)" style="fill:#000000; stroke:none; fill-opacity:1" cx="1167.59" cy="1184.08" r="18"/>
<circle clip-path="url(#clip7202)" style="fill:#ff0000; stroke:none; fill-opacity:1" cx="1167.59" cy="1184.08" r="14"/>
<circle clip-path="url(#clip7202)" style="fill:#000000; stroke:none; fill-opacity:1" cx="1373.6" cy="634.903" r="18"/>
<circle clip-path="url(#clip7202)" style="fill:#ff0000; stroke:none; fill-opacity:1" cx="1373.6" cy="634.903" r="14"/>
<circle clip-path="url(#clip7202)" style="fill:#000000; stroke:none; fill-opacity:1" cx="1568.26" cy="935.068" r="18"/>
<circle clip-path="url(#clip7202)" style="fill:#ff0000; stroke:none; fill-opacity:1" cx="1568.26" cy="935.068" r="14"/>
</svg>
